<?xml version="1.0" encoding="UTF-8"?>
<svg id="Warstwa_2" data-name="Warstwa 2" xmlns="http://www.w3.org/2000/svg" viewBox="0 0 152.1 254.49">
  <defs>
    <style>
      .cls-1 {
        fill: #1aff7c;
      }
    </style>
  </defs>
  <g id="Warstwa_9" data-name="Warstwa 9">
    <g>
      <path class="cls-1" d="M34.35,25.74c0-8.23,6.69-14.92,14.92-14.92h53.55c8.23,0,14.92,6.69,14.92,14.92v30.25l10.82,6.3V25.74c0-14.19-11.55-25.74-25.74-25.74h-53.55c-14.19,0-25.74,11.55-25.74,25.74v36.55l10.82-6.3v-30.25Z"/>
      <polygon class="cls-1" points="152.1 111.24 152.1 87.69 76.05 43.78 0 87.69 0 170.14 81.46 121.51 81.46 90.07 90.19 95.56 95.95 86.4 76.05 73.88 56.15 86.4 61.91 95.56 70.64 90.07 70.64 115.37 10.82 151.08 10.82 93.94 76.05 56.28 141.28 93.94 141.28 105.01 0 187.04 0 210.59 76.05 254.49 152.1 210.59 152.1 128.13 70.64 176.77 70.64 208.21 61.91 202.72 56.15 211.88 76.05 224.4 95.95 211.88 90.19 202.72 81.46 208.21 81.46 182.91 141.28 147.2 141.28 204.34 76.05 242 10.82 204.34 10.82 193.27 152.1 111.24"/>
    </g>
  </g>
</svg>