<svg width="32" height="33" viewBox="0 0 32 33" fill="none" xmlns="http://www.w3.org/2000/svg">
<path d="M3.99125 2.93909H1.32458V9.17509L8.82858 12.1778L9.82059 9.70042L3.99125 7.36975V2.93909Z" fill="#72F2A9"/>
<path d="M2.65794 5.60573C4.1307 5.60573 5.32461 4.41183 5.32461 2.93907C5.32461 1.46631 4.1307 0.2724 2.65794 0.2724C1.18518 0.2724 -0.00872803 1.46631 -0.00872803 2.93907C-0.00872803 4.41183 1.18518 5.60573 2.65794 5.60573Z" fill="#72F2A9"/>
<path d="M8.82858 20.3671L1.32458 23.3698V29.6058H3.99125V25.1751L9.82059 22.8445L8.82858 20.3671Z" fill="#72F2A9"/>
<path d="M9.32463 14.9391H2.65796V17.6058H9.32463V14.9391Z" fill="#72F2A9"/>
<path d="M2.65794 18.939C4.1307 18.939 5.32461 17.7451 5.32461 16.2724C5.32461 14.7996 4.1307 13.6057 2.65794 13.6057C1.18518 13.6057 -0.00872803 14.7996 -0.00872803 16.2724C-0.00872803 17.7451 1.18518 18.939 2.65794 18.939Z" fill="#72F2A9"/>
<path d="M2.65794 32.2724C4.1307 32.2724 5.32461 31.0785 5.32461 29.6058C5.32461 28.133 4.1307 26.9391 2.65794 26.9391C1.18518 26.9391 -0.00872803 28.133 -0.00872803 29.6058C-0.00872803 31.0785 1.18518 32.2724 2.65794 32.2724Z" fill="#72F2A9"/>
<path d="M27.9913 2.93909H30.6579V9.17509L23.1539 12.1778L22.1619 9.70042L27.9913 7.36975V2.93909Z" fill="#72F2A9"/>
<path d="M29.3246 5.60573C30.7974 5.60573 31.9913 4.41183 31.9913 2.93907C31.9913 1.46631 30.7974 0.2724 29.3246 0.2724C27.8519 0.2724 26.658 1.46631 26.658 2.93907C26.658 4.41183 27.8519 5.60573 29.3246 5.60573Z" fill="#72F2A9"/>
<path d="M23.1539 20.3671L30.6579 23.3698V29.6058H27.9913V25.1751L22.1619 22.8445L23.1539 20.3671Z" fill="#72F2A9"/>
<path d="M29.3246 14.9391H22.658V17.6058H29.3246V14.9391Z" fill="#72F2A9"/>
<path d="M29.3246 18.939C30.7974 18.939 31.9913 17.7451 31.9913 16.2724C31.9913 14.7996 30.7974 13.6057 29.3246 13.6057C27.8519 13.6057 26.658 14.7996 26.658 16.2724C26.658 17.7451 27.8519 18.939 29.3246 18.939Z" fill="#72F2A9"/>
<path d="M17.3246 2.93909H14.658V9.60575H17.3246V2.93909Z" fill="#72F2A9"/>
<path d="M15.9913 5.60573C17.464 5.60573 18.6579 4.41183 18.6579 2.93907C18.6579 1.46631 17.464 0.2724 15.9913 0.2724C14.5185 0.2724 13.3246 1.46631 13.3246 2.93907C13.3246 4.41183 14.5185 5.60573 15.9913 5.60573Z" fill="#72F2A9"/>
<path d="M17.3246 22.9391H14.658V29.6058H17.3246V22.9391Z" fill="#72F2A9"/>
<path d="M15.9913 32.2724C17.464 32.2724 18.6579 31.0785 18.6579 29.6058C18.6579 28.133 17.464 26.9391 15.9913 26.9391C14.5185 26.9391 13.3246 28.133 13.3246 29.6058C13.3246 31.0785 14.5185 32.2724 15.9913 32.2724Z" fill="#72F2A9"/>
<path d="M29.3246 32.2724C30.7974 32.2724 31.9913 31.0785 31.9913 29.6058C31.9913 28.133 30.7974 26.9391 29.3246 26.9391C27.8519 26.9391 26.658 28.133 26.658 29.6058C26.658 31.0785 27.8519 32.2724 29.3246 32.2724Z" fill="#72F2A9"/>
<path d="M25.3246 6.93909H6.65796V25.6058H25.3246V6.93909Z" fill="#4BE48D"/>
<path d="M19.9913 18.939H11.9913V13.6057C11.9913 12.5448 12.4127 11.5274 13.1628 10.7773C13.913 10.0271 14.9304 9.60571 15.9913 9.60571C17.0521 9.60571 18.0696 10.0271 18.8197 10.7773C19.5698 11.5274 19.9913 12.5448 19.9913 13.6057V18.939ZM14.6579 16.2724H17.3246V13.6057C17.3246 13.2521 17.1841 12.913 16.9341 12.6629C16.684 12.4129 16.3449 12.2724 15.9913 12.2724C15.6377 12.2724 15.2985 12.4129 15.0485 12.6629C14.7984 12.913 14.6579 13.2521 14.6579 13.6057V16.2724Z" fill="#09A04A"/>
<path d="M21.3246 14.9391H10.658V22.9391H21.3246V14.9391Z" fill="#17C260"/>
</svg>
