<svg width="16" height="16" viewBox="0 0 16 16" fill="none" xmlns="http://www.w3.org/2000/svg">
<path d="M15.8766 3.49178L12.5082 0.123356C12.4293 0.0444085 12.3224 0 12.2105 0H4.63158C3.93503 0 3.36842 0.566611 3.36842 1.26316V1.68421H2.94737C2.25082 1.68421 1.68421 2.25082 1.68421 2.94737V7.02531C0.690248 7.49956 0 8.51149 0 9.68421C0 10.8569 0.690248 11.8689 1.68421 12.3431V14.7368C1.68421 15.4334 2.25082 16 2.94737 16H13.0526C13.7492 16 14.3158 15.4334 14.3158 14.7368V14.3158H14.7368C15.4334 14.3158 16 13.7492 16 13.0526V3.78947C16 3.67784 15.9556 3.57072 15.8766 3.49178ZM4.21053 1.26316C4.21053 1.03104 4.39926 0.842105 4.63158 0.842105H11.7895V1.68421H4.21053V1.26316ZM0.842105 9.68421C0.842105 8.52344 1.78659 7.57895 2.94737 7.57895C4.10814 7.57895 5.05263 8.52344 5.05263 9.68421C5.05263 10.845 4.10814 11.7895 2.94737 11.7895C1.78659 11.7895 0.842105 10.845 0.842105 9.68421ZM3.36842 14.7368C3.36842 14.969 3.17969 15.1579 2.94737 15.1579C2.71505 15.1579 2.52632 14.969 2.52632 14.7368V12.6316H3.36842V14.7368ZM13.4737 14.7368C13.4737 14.969 13.285 15.1579 13.0526 15.1579H4.13294C4.18012 15.0255 4.21053 14.8852 4.21053 14.7368V12.3431C5.20449 11.8689 5.89474 10.8569 5.89474 9.68421C5.89474 8.05901 4.57237 6.73684 2.94737 6.73684C2.80405 6.73684 2.66421 6.75062 2.52632 6.77048V2.94737C2.52632 2.71525 2.71505 2.52632 2.94737 2.52632H11.7895V3.78947C11.7895 4.022 11.9778 4.21053 12.2105 4.21053H13.4737V14.7368ZM12.6316 3.36842V1.4375L14.5625 3.36842H12.6316ZM15.1579 13.0526C15.1579 13.2847 14.9692 13.4737 14.7368 13.4737H14.3158V4.21053H15.1579V13.0526Z" fill="#71FFAE"/>
<path d="M3.78947 4.21053H10.5263C10.759 4.21053 10.9474 4.022 10.9474 3.78947C10.9474 3.55695 10.759 3.36842 10.5263 3.36842H3.78947C3.55675 3.36842 3.36842 3.55695 3.36842 3.78947C3.36842 4.022 3.55675 4.21053 3.78947 4.21053Z" fill="#71FFAE"/>
<path d="M3.78947 5.05263C3.55675 5.05263 3.36842 5.24116 3.36842 5.47368C3.36842 5.70621 3.55675 5.89474 3.78947 5.89474H12.2105C12.4433 5.89474 12.6316 5.70621 12.6316 5.47368C12.6316 5.24116 12.4433 5.05263 12.2105 5.05263H3.78947Z" fill="#71FFAE"/>
<path d="M12.2105 6.73684H7.15789C6.92517 6.73684 6.73684 6.92537 6.73684 7.15789C6.73684 7.39042 6.92517 7.57895 7.15789 7.57895H12.2105C12.4433 7.57895 12.6316 7.39042 12.6316 7.15789C12.6316 6.92537 12.4433 6.73684 12.2105 6.73684Z" fill="#71FFAE"/>
<path d="M12.2105 8.42105H7.15789C6.92517 8.42105 6.73684 8.60958 6.73684 8.8421C6.73684 9.07463 6.92517 9.26316 7.15789 9.26316H12.2105C12.4433 9.26316 12.6316 9.07463 12.6316 8.8421C12.6316 8.60958 12.4433 8.42105 12.2105 8.42105Z" fill="#71FFAE"/>
<path d="M12.2105 10.1053H7.15789C6.92517 10.1053 6.73684 10.2938 6.73684 10.5263C6.73684 10.7588 6.92517 10.9474 7.15789 10.9474H12.2105C12.4433 10.9474 12.6316 10.7588 12.6316 10.5263C12.6316 10.2938 12.4433 10.1053 12.2105 10.1053Z" fill="#71FFAE"/>
<path d="M12.2105 11.7895H7.15789C6.92517 11.7895 6.73684 11.978 6.73684 12.2105C6.73684 12.4431 6.92517 12.6316 7.15789 12.6316H12.2105C12.4433 12.6316 12.6316 12.4431 12.6316 12.2105C12.6316 11.978 12.4433 11.7895 12.2105 11.7895Z" fill="#71FFAE"/>
<path d="M12.2105 13.4737H7.15789C6.92517 13.4737 6.73684 13.6622 6.73684 13.8947C6.73684 14.1273 6.92517 14.3158 7.15789 14.3158H12.2105C12.4433 14.3158 12.6316 14.1273 12.6316 13.8947C12.6316 13.6622 12.4433 13.4737 12.2105 13.4737Z" fill="#71FFAE"/>
</svg>
