<svg width="16" height="17" viewBox="0 0 16 17" fill="none" xmlns="http://www.w3.org/2000/svg">
<path d="M15.1579 12.7494V3.90733C15.1579 3.21258 14.5895 2.64417 13.8947 2.64417H11.7895V2.22312C11.7895 1.52837 11.2211 0.959961 10.5263 0.959961H5.47368C4.77894 0.959961 4.21053 1.52837 4.21053 2.22312V2.64417H2.10526C1.41052 2.64417 0.842105 3.21258 0.842105 3.90733V12.7494C0.378956 12.7494 0 13.1284 0 13.5915V14.8547C0 16.0168 0.943154 16.96 2.10526 16.96H13.8947C15.0568 16.96 16 16.0168 16 14.8547V13.5915C16 13.1284 15.621 12.7494 15.1579 12.7494ZM7.15789 1.80207H8.8421V2.64417H7.15789V1.80207ZM5.05263 2.22312C5.05263 1.99154 5.24211 1.80207 5.47368 1.80207H6.31579V3.06522C6.31579 3.2968 6.50527 3.48628 6.73684 3.48628H9.26316C9.49473 3.48628 9.68421 3.2968 9.68421 3.06522V1.80207H10.5263C10.7579 1.80207 10.9474 1.99154 10.9474 2.22312V8.95996C10.9474 9.19154 10.7579 9.38101 10.5263 9.38101H5.47368C5.24211 9.38101 5.05263 9.19154 5.05263 8.95996V2.22312ZM5.47368 10.2231H10.5263C11.2211 10.2231 11.7895 9.65468 11.7895 8.95996V5.17049H12.6316V11.0652H3.36842V5.17049H4.21053V8.95996C4.21053 9.65468 4.77894 10.2231 5.47368 10.2231ZM1.68421 3.90733C1.68421 3.67575 1.87369 3.48628 2.10526 3.48628H4.21053V4.32838H2.94737C2.71579 4.32838 2.52632 4.51786 2.52632 4.74943V11.4863C2.52632 11.7179 2.71579 11.9073 2.94737 11.9073H13.0526C13.2842 11.9073 13.4737 11.7179 13.4737 11.4863V4.74943C13.4737 4.51786 13.2842 4.32838 13.0526 4.32838H11.7895V3.48628H13.8947C14.1263 3.48628 14.3158 3.67575 14.3158 3.90733V12.7494H1.68421V3.90733ZM10.1053 13.5915V14.0126C10.1053 14.2442 9.91579 14.4336 9.68421 14.4336H6.31579C6.08421 14.4336 5.89474 14.2442 5.89474 14.0126V13.5915H10.1053ZM15.1579 14.8547C15.1579 15.5494 14.5895 16.1179 13.8947 16.1179H2.10526C1.41052 16.1179 0.842105 15.5494 0.842105 14.8547V13.5915H5.05263V14.0126C5.05263 14.7073 5.62104 15.2758 6.31579 15.2758H9.68421C10.379 15.2758 10.9474 14.7073 10.9474 14.0126V13.5915H15.1579V14.8547Z" fill="#1AFF7C"/>
<path d="M8 8.53891C8.23254 8.53891 8.42105 8.3504 8.42105 8.11786C8.42105 7.88531 8.23254 7.6968 8 7.6968C7.76746 7.6968 7.57895 7.88531 7.57895 8.11786C7.57895 8.3504 7.76746 8.53891 8 8.53891Z" fill="#1AFF7C"/>
</svg>
