<svg width="33" height="33" viewBox="0 0 33 33" fill="none" xmlns="http://www.w3.org/2000/svg">
<path d="M13.8 27.1547C21.1638 27.1547 27.1333 21.1852 27.1333 13.8214C27.1333 6.45757 21.1638 0.488037 13.8 0.488037C6.43621 0.488037 0.466675 6.45757 0.466675 13.8214C0.466675 21.1852 6.43621 27.1547 13.8 27.1547Z" fill="#4BE48D"/>
<path d="M27.1333 13.8211C27.1328 16.3439 26.4166 18.8147 25.0679 20.9467C23.7192 23.0786 21.7933 24.7842 19.514 25.8653C17.2346 26.9464 14.6953 27.3587 12.191 27.0543C9.68672 26.7499 7.32016 25.7412 5.36621 24.1455C3.41227 22.5498 1.95112 20.4325 1.15246 18.0395C0.353814 15.6465 0.250438 13.076 0.854344 10.6266C1.45825 8.17721 2.74465 5.9494 4.56415 4.20192C6.38365 2.45444 8.66157 1.25901 11.1333 0.754457C13.0704 0.362008 15.0705 0.40459 16.9891 0.879128C18.9078 1.35367 20.6971 2.24832 22.2279 3.49849C23.7588 4.74867 24.9929 6.32316 25.8412 8.1083C26.6895 9.89344 27.1308 11.8447 27.1333 13.8211V13.8211Z" fill="#4BE48D"/>
<path d="M26.0134 19.1547H17.8L16.4667 15.1547L13.8 12.4881V8.48807L11.1334 7.15474V0.754737C13.5246 0.271642 16.0025 0.453315 18.2977 1.28C20.5929 2.10669 22.6176 3.54676 24.1516 5.44365C25.6856 7.34054 26.6702 9.62167 26.9985 12.039C27.3267 14.4564 26.986 16.9175 26.0134 19.1547Z" fill="#17C260"/>
<path d="M11.1334 20.4881V24.4881L7.90669 25.7814C5.86352 24.7744 4.11258 23.2605 2.82099 21.3842C1.52941 19.508 0.740308 17.332 0.529018 15.0639C0.317728 12.7959 0.691302 10.5116 1.61408 8.42902C2.53685 6.34645 3.97803 4.53518 5.80002 3.16809V9.82142L9.80002 12.4881V17.8214L11.1334 20.4881Z" fill="#17C260"/>
<path d="M32.4667 16.4881V21.3881C32.4668 23.8438 31.6942 26.2372 30.2584 28.2294C28.8226 30.2216 26.7963 31.7115 24.4667 32.4881C22.1369 31.7117 20.1106 30.2218 18.6747 28.2296C17.2389 26.2374 16.4664 23.8438 16.4667 21.3881V16.4881L20.4667 13.8214H28.4667L32.4667 16.4881Z" fill="#72F2A9"/>
<path d="M23.1333 26.3734L19.524 22.764L21.4093 20.8787L23.1333 22.6027L27.524 18.212L29.4093 20.0974L23.1333 26.3734Z" fill="white"/>
</svg>
