<svg width="33" height="32" viewBox="0 0 33 32" fill="none" xmlns="http://www.w3.org/2000/svg">
<path d="M30.1557 2.66667V26.6667H3.48899C2.78175 26.6667 2.10347 26.3857 1.60338 25.8856C1.10328 25.3855 0.822327 24.7072 0.822327 24V0H8.82233L10.1557 2.66667H30.1557Z" fill="#17C260"/>
<path d="M32.8223 8V24C32.8202 24.7066 32.5386 25.3836 32.039 25.8833C31.5393 26.3829 30.8623 26.6646 30.1557 26.6667H3.48901C4.19561 26.6646 4.87266 26.3829 5.3723 25.8833C5.87194 25.3836 6.15357 24.7066 6.15568 24V8H32.8223Z" fill="#4BE48D"/>
<path d="M27.489 16V20.9C27.4891 23.3557 26.7165 25.7492 25.2807 27.7414C23.8449 29.7335 21.8187 31.2235 19.489 32C17.1593 31.2236 15.1329 29.7338 13.6971 27.7415C12.2612 25.7493 11.4887 23.3558 11.489 20.9V16L15.489 13.3334H23.489L27.489 16Z" fill="#72F2A9"/>
<path d="M18.1556 25.8853L14.5463 22.276L16.4316 20.3907L18.1556 22.1147L22.5463 17.724L24.4316 19.6093L18.1556 25.8853Z" fill="white"/>
<path d="M8.82233 0L10.1557 2.66667H15.489L14.1557 0H8.82233Z" fill="#72F2A9"/>
</svg>
