<svg width="16" height="16" viewBox="0 0 16 16" fill="none" xmlns="http://www.w3.org/2000/svg">
<path d="M15.1579 11.7895V2.94737C15.1579 2.25262 14.5895 1.68421 13.8947 1.68421H6.2821C5.69685 0.677891 4.61053 0 3.36842 0C1.51159 0 0 1.51157 0 3.36842C0 4.21893 0.320004 4.99368 0.842105 5.58735V11.7895C0.378956 11.7895 0 12.1684 0 12.6316V13.8947C0 15.0568 0.943154 16 2.10526 16H13.8947C15.0568 16 16 15.0568 16 13.8947V12.6316C16 12.1684 15.621 11.7895 15.1579 11.7895ZM13.8947 2.52632C14.1263 2.52632 14.3158 2.71579 14.3158 2.94737V11.7895H1.68421V6.2821C1.94526 6.43367 2.22736 6.54736 2.52632 6.62736V10.5263C2.52632 10.7579 2.71579 10.9474 2.94737 10.9474H13.0526C13.2842 10.9474 13.4737 10.7579 13.4737 10.5263V3.78947C13.4737 3.5579 13.2842 3.36842 13.0526 3.36842H6.73684C6.73684 3.07789 6.69475 2.79579 6.62736 2.52632H13.8947ZM10.1053 12.6316V13.0526C10.1053 13.2842 9.91579 13.4737 9.68421 13.4737H6.31579C6.08421 13.4737 5.89474 13.2842 5.89474 13.0526V12.6316H10.1053ZM6.62736 4.21053H12.6316V10.1053H3.36842V6.73684C4.93472 6.73684 6.25262 5.65895 6.62736 4.21053ZM3.36842 0.842105C4.76211 0.842105 5.89474 1.97474 5.89474 3.36842C5.89474 4.76211 4.76211 5.89474 3.36842 5.89474C2.66106 5.89474 2.02105 5.6 1.56211 5.13263C1.56211 5.12982 1.56071 5.12842 1.5579 5.12842C1.1158 4.67367 0.842105 4.05474 0.842105 3.36842C0.842105 1.97474 1.97474 0.842105 3.36842 0.842105ZM15.1579 13.8947C15.1579 14.5895 14.5895 15.1579 13.8947 15.1579H2.10526C1.41052 15.1579 0.842105 14.5895 0.842105 13.8947V12.6316H5.05263V13.0526C5.05263 13.7474 5.62104 14.3158 6.31579 14.3158H9.68421C10.379 14.3158 10.9474 13.7474 10.9474 13.0526V12.6316H15.1579V13.8947Z" fill="#71FFAE"/>
<path d="M3.36842 3.60115C3.60095 3.60115 3.78947 3.41283 3.78947 3.1801V1.91694C3.78947 1.68421 3.60095 1.49589 3.36842 1.49589C3.13589 1.49589 2.94737 1.68421 2.94737 1.91694V3.1801C2.94737 3.41283 3.13589 3.60115 3.36842 3.60115Z" fill="#71FFAE"/>
<path d="M3.36842 5.07491C3.60096 5.07491 3.78947 4.8864 3.78947 4.65386C3.78947 4.42132 3.60096 4.23281 3.36842 4.23281C3.13588 4.23281 2.94737 4.42132 2.94737 4.65386C2.94737 4.8864 3.13588 5.07491 3.36842 5.07491Z" fill="#71FFAE"/>
<path d="M7.57895 5.89474H11.3684C11.6009 5.89474 11.7895 5.70641 11.7895 5.47368C11.7895 5.24096 11.6009 5.05263 11.3684 5.05263H7.57895C7.34642 5.05263 7.15789 5.24096 7.15789 5.47368C7.15789 5.70641 7.34642 5.89474 7.57895 5.89474Z" fill="#71FFAE"/>
<path d="M7.57895 7.57895H11.3684C11.6009 7.57895 11.7895 7.39062 11.7895 7.15789C11.7895 6.92517 11.6009 6.73684 11.3684 6.73684H7.57895C7.34642 6.73684 7.15789 6.92517 7.15789 7.15789C7.15789 7.39062 7.34642 7.57895 7.57895 7.57895Z" fill="#71FFAE"/>
<path d="M7.57895 9.26316H11.3684C11.6009 9.26316 11.7895 9.07483 11.7895 8.8421C11.7895 8.60938 11.6009 8.42105 11.3684 8.42105H7.57895C7.34642 8.42105 7.15789 8.60938 7.15789 8.8421C7.15789 9.07483 7.34642 9.26316 7.57895 9.26316Z" fill="#71FFAE"/>
</svg>
