<?xml version="1.0" encoding="UTF-8"?>
<svg id="Warstwa_2" data-name="Warstwa 2" xmlns="http://www.w3.org/2000/svg" viewBox="0 0 1031.01 254.49">
  <defs>
    <style>
      .cls-1 {
        fill: #fff;
      }

      .cls-2 {
        fill: #1aff7c;
      }
    </style>
  </defs>
  <g id="Warstwa_8" data-name="Warstwa 8">
    <g>
      <g>
        <path class="cls-2" d="M34.35,25.74c0-8.23,6.69-14.92,14.92-14.92h53.55c8.23,0,14.92,6.69,14.92,14.92v30.25l10.82,6.3V25.74c0-14.19-11.55-25.74-25.74-25.74h-53.55c-14.19,0-25.74,11.55-25.74,25.74v36.55l10.82-6.3v-30.25Z"/>
        <polygon class="cls-2" points="152.1 111.24 152.1 87.69 76.05 43.78 0 87.69 0 170.14 81.46 121.51 81.46 90.07 90.19 95.56 95.95 86.4 76.05 73.88 56.15 86.4 61.91 95.56 70.64 90.07 70.64 115.37 10.82 151.08 10.82 93.94 76.05 56.28 141.28 93.94 141.28 105.01 0 187.04 0 210.59 76.05 254.49 152.1 210.59 152.1 128.13 70.64 176.77 70.64 208.21 61.91 202.72 56.15 211.88 76.05 224.4 95.95 211.88 90.19 202.72 81.46 208.21 81.46 182.91 141.28 147.2 141.28 204.34 76.05 242 10.82 204.34 10.82 193.27 152.1 111.24"/>
      </g>
      <g>
        <path class="cls-1" d="M246.91,170.4v-85.66h40.88c22,0,32.68,13.02,32.68,28.64,0,10.42-6.77,19.27-16.66,23.96l19.14,33.07h-24.35l-16.01-29.55h-13.54v29.55h-22.13ZM269.05,105.57v16.27h18.75c5.99,0,10.55-2.08,10.55-8.2s-4.56-8.07-10.55-8.07h-18.75Z"/>
        <path class="cls-1" d="M362,170.4h-22.13v-85.66h22.13v85.66Z"/>
        <path class="cls-1" d="M435.03,108.83c-4.17-3.91-11.98-6.77-18.23-6.77s-9.11,2.21-9.11,6.25c0,3.65,3.39,5.73,8.33,7.55,12.76,4.56,35.67,7.81,35.67,28.51,0,16.79-13.93,27.6-35.41,27.6-13.67,0-27.86-5.34-35.8-13.54l12.63-14.71c4.95,4.95,14.97,8.72,23.43,8.72,7.81,0,11.85-2.21,11.85-6.9,0-4.43-5.34-6.77-12.37-8.85-13.15-3.78-31.9-8.46-31.9-26.95,0-16.53,12.76-27.21,33.07-27.21,12.5,0,25.39,4.82,30.98,11.59l-13.15,14.71Z"/>
        <path class="cls-1" d="M492.31,170.4h-22.13v-85.66h22.13v31.64h8.46l21.61-31.64h26.43l-29.81,41.66,31.9,44h-26.43l-23.56-33.98h-8.59v33.98Z"/>
        <path class="cls-1" d="M614.81,84.74h8.98l17.97,85.66h-8.07l-4.17-20.44h-45.44l-12.63,20.44h-8.98l52.34-85.66ZM588.64,142.54h39.32l-10.02-47.91h-.13l-29.16,47.91Z"/>
        <path class="cls-1" d="M666.36,84.74h8.07l6.64,74.47h.26l37.36-74.47h8.72l7.55,74.47h.26l36.32-74.47h8.98l-42.18,85.66h-9.76l-7.55-73.43h-.26l-36.97,73.43h-9.63l-7.81-85.66Z"/>
        <path class="cls-1" d="M823.24,84.74h8.98l17.97,85.66h-8.07l-4.17-20.44h-45.44l-12.63,20.44h-8.98l52.34-85.66ZM797.07,142.54h39.32l-10.02-47.91h-.13l-29.16,47.91Z"/>
        <path class="cls-1" d="M871.53,170.4l17.18-85.66h32.68c16.92,0,26.56,9.5,23.43,25.13-2.6,13.02-11.33,21.61-24.74,23.95l15.1,36.58h-8.72l-14.97-35.8h-24.74l-7.16,35.8h-8.07ZM895.1,92.29l-6.9,34.76h25.78c12.63,0,20.83-6.77,22.91-17.18,2.08-10.55-2.86-17.58-16.4-17.58h-25.39Z"/>
        <path class="cls-1" d="M1014.47,170.4h-56.24l17.18-85.66h55.59l-1.56,7.42h-47.39l-6.12,30.46h46.87l-1.43,7.42h-47l-6.64,32.94h48.3l-1.56,7.42Z"/>
      </g>
    </g>
  </g>
</svg>